<svg width="43" height="72" viewBox="0 0 43 72" fill="none" xmlns="http://www.w3.org/2000/svg">
<path d="M16.9439 1.75036C17.7896 -0.783991 22.1156 -0.26899 24.284 1.41425C26.4525 3.0975 29.7322 4.09227 30.6999 3.41735C28.5613 6.07368 24.5984 6.99797 22.0099 6.36641C19.4213 5.73486 16.0087 4.52053 16.9439 1.75036Z" fill="#263238"/>
<path d="M30.0571 5.00851C30.0428 5.00869 30.0288 5.00468 30.0167 4.99697C30.0047 4.98926 29.9952 4.9782 29.9893 4.96514C29.9854 4.95645 29.9832 4.94705 29.9829 4.9375C29.9827 4.92794 29.9844 4.91844 29.9879 4.90956C29.9915 4.90069 29.9968 4.89263 30.0036 4.88587C30.0103 4.87912 30.0184 4.87381 30.0273 4.87027C30.5233 4.64801 31.1847 4.66156 31.884 4.67511C32.7676 4.69409 33.6838 4.71035 34.2422 4.22516C34.2571 4.2139 34.2757 4.20874 34.2942 4.21075C34.3128 4.21277 34.3299 4.2218 34.342 4.236C34.3541 4.25019 34.3604 4.26849 34.3594 4.28713C34.3585 4.30578 34.3505 4.32337 34.337 4.3363C33.7353 4.85943 32.792 4.84046 31.8786 4.82148C31.1955 4.80793 30.5504 4.79438 30.0869 5.00309L30.0571 5.00851Z" fill="#263238"/>
<path d="M29.5743 2.55828C29.5576 2.55502 29.5426 2.54608 29.5318 2.53298C29.521 2.51987 29.5151 2.50342 29.5151 2.48645C29.5151 2.46947 29.521 2.45302 29.5318 2.43992C29.5426 2.42681 29.5576 2.41787 29.5743 2.41462C29.9171 2.38537 30.2452 2.26254 30.523 2.05954C30.5293 2.05255 30.5371 2.04697 30.5457 2.04315C30.5544 2.03933 30.5637 2.03735 30.5731 2.03735C30.5826 2.03735 30.5919 2.03933 30.6006 2.04315C30.6092 2.04697 30.6169 2.05255 30.6233 2.05954C30.6299 2.06609 30.6352 2.0739 30.6388 2.08251C30.6424 2.09112 30.6442 2.10035 30.6442 2.10968C30.6442 2.11901 30.6424 2.12825 30.6388 2.13686C30.6352 2.14546 30.6299 2.15327 30.6233 2.15983C30.3253 2.38565 29.9687 2.52113 29.596 2.55015L29.5743 2.55828Z" fill="#263238"/>
<path d="M14.9404 1.7425C16.9218 1.12721 18.3747 1.41452 18.6186 2.30087C18.8734 3.23059 17.613 3.84588 17.1766 3.81606C16.7402 3.78625 14.9404 1.7425 14.9404 1.7425Z" fill="#2196F3"/>
<path d="M9.1318 8.34514C7.97711 7.80303 7.52717 5.85415 8.00693 5.09249C6.76008 4.88107 7.97169 0.0481793 13.8373 0.888447C19.7029 1.72871 18.3937 7.29074 16.6671 7.85724C17.2987 8.6948 15.2468 11.305 12.8046 10.0907C10.3624 8.87641 9.1318 8.34514 9.1318 8.34514Z" fill="#263238"/>
<path d="M2.7859 25.6166L1.33847 24.8224L1.24902 27.5085C1.24902 27.5085 2.72356 27.6386 3.66412 27.0721L3.6099 26.7713C3.5687 26.5291 3.47315 26.2993 3.33043 26.0993C3.18772 25.8994 3.00155 25.7343 2.7859 25.6166Z" fill="#FFB573"/>
<path d="M0.00280542 26.0179L0.0949628 26.8772C0.113364 27.0569 0.199027 27.2229 0.334763 27.3421C0.4705 27.4612 0.64627 27.5246 0.82681 27.5196H1.24965L1.3391 24.8334L0.393124 25.3105C0.265094 25.3762 0.159573 25.4787 0.0900472 25.6047C0.020521 25.7307 -0.00985377 25.8746 0.00280542 26.0179Z" fill="#FFB573"/>
<path d="M13.0382 17.2168C13.0382 17.4391 13.0382 17.6017 13.0382 17.7861C13.0382 17.9704 13.0382 18.1411 13.0382 18.3282C13.0382 18.6805 13.0084 19.0302 12.9813 19.3799C12.9275 20.0798 12.837 20.7765 12.7102 21.467C12.5836 22.166 12.4143 22.8567 12.2033 23.5351C11.9952 24.2279 11.737 24.9046 11.4308 25.5599L11.1842 26.0532C11.1243 26.1798 11.0573 26.3028 10.9836 26.4218C10.8667 26.5966 10.7273 26.7552 10.5689 26.8935C10.1472 27.2464 9.64409 27.4887 9.10519 27.5982C8.3603 27.7589 7.59762 27.8218 6.83647 27.7852C5.46439 27.7335 4.10159 27.5372 2.77066 27.1998C2.58104 27.1533 2.41446 27.0402 2.30133 26.8812C2.18821 26.7221 2.13609 26.5276 2.15451 26.3332C2.17292 26.1389 2.26064 25.9576 2.40163 25.8226C2.54263 25.6876 2.72749 25.6078 2.92245 25.5978H2.95226C4.21808 25.5301 5.51914 25.4515 6.71991 25.2861C7.26887 25.2227 7.80951 25.1009 8.33268 24.9229C8.53597 24.8524 8.69047 24.7196 8.60374 24.7603C8.56523 24.7873 8.53214 24.8213 8.50616 24.8606C8.43568 24.9798 8.50616 24.8389 8.50616 24.7874L8.66608 24.3862C9.06505 23.2683 9.34665 22.1119 9.50635 20.9357C9.59851 20.3394 9.65272 19.7322 9.70422 19.1278C9.72861 18.8242 9.74759 18.5206 9.75843 18.2197V17.7698V17.3551V17.2765C9.75523 17.0629 9.79412 16.8508 9.87289 16.6523C9.95166 16.4537 10.0688 16.2726 10.2175 16.1194C10.5179 15.8098 10.929 15.6322 11.3604 15.6258C11.7917 15.6193 12.2079 15.7844 12.5175 16.0849C12.8271 16.3853 13.0046 16.7964 13.0111 17.2277L13.0382 17.2168Z" fill="#FFB573"/>
<path d="M14.775 26.2346C14.775 26.2346 11.7284 37.5132 9.76596 45.0756C7.78997 51.982 4.67285 68.7088 4.67285 68.7088L6.43199 69.1398C6.43199 69.1398 12.2732 58.8397 14.1597 47.1844C21.5107 36.8383 22.3727 28.7961 22.3727 28.7961L14.775 26.2346Z" fill="#2196F3"/>
<path opacity="0.2" d="M20.2554 31.6559C19.8624 31.8429 19.0059 34.1577 19.8814 37.077C20.5985 35.4095 21.2043 33.6963 21.6947 31.9486L20.2554 31.6559Z" fill="black"/>
<path d="M26.5252 45.1543C30.3363 28.2975 23.9584 25.8173 23.9584 25.8173L23.5111 25.8878C20.9605 27.5141 18.9439 32.122 20.2991 34.9708C20.2585 37.2802 20.1202 42.273 20.5702 45.4958C20.8141 47.2739 20.928 48.7783 23.1642 49.5183C25.4004 50.2582 32.8272 50.7651 38.9395 53.6112L39.2322 51.4997C39.2322 51.4997 31.1684 45.1136 26.5252 45.1543Z" fill="#2196F3"/>
<path d="M41.7233 51.8574C41.0999 51.9089 40.6635 52.039 38.8257 50.9439C38.8257 50.9439 37.8418 52.7952 37.9448 53.5325C39.2106 54.0746 41.8832 56.1563 41.5038 57.7338C41.2896 58.6337 42.3332 58.3979 42.588 57.7609C43.2033 56.1753 42.4768 55.148 42.6259 54.202C42.7533 53.3888 42.9756 53.2289 43 52.5757C43.0081 52.02 42.3494 51.8059 41.7233 51.8574Z" fill="#263238"/>
<path d="M23.9589 25.8173C23.4493 23.2532 21.3703 19.6156 20.3186 13.7663C20.2612 13.4456 20.137 13.1405 19.9541 12.8709C19.7712 12.6013 19.5336 12.3732 19.2567 12.2014C18.9799 12.0296 18.67 11.918 18.3472 11.8738C18.0244 11.8296 17.6959 11.8538 17.3831 11.9448C17.028 12.0478 16.6567 12.1643 16.2799 12.2945C14.9534 12.7224 13.659 13.2441 12.4065 13.8557C12.0054 14.0644 11.5934 14.2894 11.2058 14.5144C10.5268 14.9057 10.0179 15.5359 9.77831 16.2821C9.53877 17.0283 9.58576 17.837 9.91013 18.5504C10.2842 19.3635 9.74207 21.8464 11.8292 22.3126C12.7047 23.9389 14.1467 23.2884 14.7728 26.2591C14.7728 30.3981 19.1639 35.2039 20.2996 34.9817C19.6301 28.5197 23.9589 25.8173 23.9589 25.8173Z" fill="#2196F3"/>
<path opacity="0.4" d="M23.9589 25.8173C23.4493 23.2532 21.3703 19.6156 20.3186 13.7663C20.2612 13.4456 20.137 13.1405 19.9541 12.8709C19.7712 12.6013 19.5336 12.3732 19.2567 12.2014C18.9799 12.0296 18.67 11.918 18.3472 11.8738C18.0244 11.8296 17.6959 11.8538 17.3831 11.9448C17.028 12.0478 16.6567 12.1643 16.2799 12.2945C14.9534 12.7224 13.659 13.2441 12.4065 13.8557C12.0054 14.0644 11.5934 14.2894 11.2058 14.5144C10.5268 14.9057 10.0179 15.5359 9.77831 16.2821C9.53877 17.0283 9.58576 17.837 9.91013 18.5504C10.2842 19.3635 9.74207 21.8464 11.8292 22.3126C12.7047 23.9389 14.1467 23.2884 14.7728 26.2591C14.7728 30.3981 19.1639 35.2039 20.2996 34.9817C19.6301 28.5197 23.9589 25.8173 23.9589 25.8173Z" fill="white"/>
<path d="M19.6053 24.6815L17.979 24.9526L19.5809 27.121C19.5809 27.121 20.8142 26.3078 21.2073 25.2751L20.9796 25.0718C20.7945 24.9078 20.5748 24.7876 20.3369 24.72C20.099 24.6525 19.849 24.6393 19.6053 24.6815Z" fill="#FFB573"/>
<path d="M17.6755 26.7254L18.28 27.3407C18.406 27.4702 18.5764 27.5472 18.7569 27.5563C18.9374 27.5653 19.1147 27.5057 19.2531 27.3895L19.5783 27.1184L17.9764 24.95L17.5346 25.9122C17.4716 26.0458 17.4514 26.1956 17.4766 26.3411C17.5018 26.4866 17.5713 26.6208 17.6755 26.7254Z" fill="#FFB573"/>
<path opacity="0.3" d="M20.5381 14.8776L17.7571 14.2054C18.2423 15.4115 19.9418 17.2168 21.4109 18.2413C21.0965 17.2141 20.7956 16.1 20.5381 14.8776Z" fill="#2196F3"/>
<path d="M19.3835 12.2729C19.5841 12.3786 19.7278 12.4599 19.8904 12.544C20.053 12.628 20.1967 12.731 20.3485 12.8286C20.6493 13.021 20.9421 13.2189 21.2321 13.4249C21.809 13.8408 22.3627 14.2877 22.891 14.7639C23.9735 15.7252 24.92 16.8295 25.7045 18.0464L25.8536 18.2767L25.8915 18.3364C25.9268 18.396 25.962 18.4556 25.9918 18.5153C26.0522 18.6323 26.1012 18.7548 26.1382 18.8812C26.2466 19.2741 26.2541 19.6881 26.1599 20.0847C26.0356 20.5566 25.8302 21.0033 25.5527 21.4047C25.1317 22.0176 24.6485 22.5853 24.1107 23.0988C23.1189 24.0524 22.0399 24.9109 20.8879 25.663C20.7246 25.7679 20.5291 25.8109 20.3368 25.7843C20.1445 25.7577 19.9681 25.6631 19.8394 25.5178C19.7108 25.3724 19.6384 25.1858 19.6353 24.9917C19.6322 24.7977 19.6987 24.6089 19.8226 24.4595L19.8416 24.4378C20.671 23.4647 21.5167 22.4618 22.2513 21.4562C22.6016 20.9971 22.9126 20.5093 23.181 19.9979C23.2691 19.8477 23.3245 19.6805 23.3436 19.5073C23.3436 19.4911 23.3057 19.548 23.3436 19.7323C23.3569 19.7797 23.3741 19.826 23.3951 19.8705C23.4061 19.8949 23.4188 19.9184 23.4331 19.941L23.4005 19.9004L23.265 19.7269L22.994 19.3826L22.7039 19.052C22.5169 18.8243 22.3001 18.6183 22.0995 18.4014C21.6712 17.984 21.2348 17.5747 20.7686 17.1898C20.3024 16.8049 19.8172 16.4363 19.3239 16.0839C19.0745 15.9077 18.8251 15.7343 18.5704 15.5716L18.1936 15.3331L17.8439 15.119L17.7653 15.0702C17.4163 14.8441 17.1672 14.493 17.0691 14.0889C16.971 13.6848 17.0314 13.2585 17.2379 12.8976C17.4444 12.5367 17.7813 12.2686 18.1793 12.1483C18.5774 12.0281 19.0063 12.0649 19.3781 12.2512L19.3835 12.2729Z" fill="#FFB573"/>
<path d="M7.10491 70.0208C7.10491 69.3865 6.8962 69.3106 7.91807 67.1151C7.91807 67.1151 5.24277 66.3344 4.72234 66.7031C4.5055 68.08 3.424 69.728 1.4182 69.3052C0.526429 69.1182 0.464086 69.8473 1.07938 70.1184C2.61625 70.777 3.74655 70.6252 4.67898 70.7824C5.47316 70.918 5.72524 71.1619 6.37577 71.1999C6.91517 71.2297 7.11304 70.6551 7.10491 70.0208Z" fill="#263238"/>
<path d="M12.4061 13.845C12.4061 13.845 11.189 15.5066 13.4198 17.5611C13.8318 15.5201 16.274 12.2973 16.274 12.2973L12.4061 13.845Z" fill="white"/>
<path opacity="0.3" d="M14.1785 20.8135C16.2873 21.4668 18.7376 20.3528 18.7376 20.3528C18.7376 20.3528 16.1301 22.2176 14.1785 20.8135Z" fill="#2196F3"/>
<path d="M14.1379 8.07407C14.3954 9.42934 15.073 11.7983 16.2792 12.2781C16.2792 12.2781 13.8696 14.704 13.2624 16.6475C11.5439 14.9453 12.4059 13.8394 12.4059 13.8394C13.6636 12.9476 13.219 11.942 12.5793 11.0611L14.1379 8.07407Z" fill="#FFB573"/>
<path opacity="0.2" d="M13.5044 9.29648L12.5801 11.0556C12.7314 11.2562 12.8639 11.4703 12.9758 11.6953C13.4773 11.4053 13.9706 10.5298 13.789 9.94972C13.7333 9.71691 13.637 9.49577 13.5044 9.29648Z" fill="black"/>
<path d="M14.531 5.26324C14.8617 7.48589 15.0487 8.41831 14.2003 9.77358C12.921 11.8146 10.289 11.6574 9.32137 9.57571C8.44315 7.70002 7.92815 4.44466 9.84992 3.12734C11.7717 1.81002 14.2003 3.0406 14.531 5.26324Z" fill="#FFB573"/>
<path d="M8.31836 3.66415C10.2889 4.65621 12.4736 3.71565 13.3844 4.76192C14.2951 5.80819 15.9404 7.6622 17.2902 7.04148C16.366 4.08157 11.7526 0.197369 8.31836 3.66415Z" fill="#263238"/>
<path d="M13.1484 8.61623C12.3999 8.87757 11.6359 9.09212 10.8607 9.25863C10.7333 8.96047 10.793 8.59455 11.7254 8.28555C12.9885 7.85999 13.1484 8.61623 13.1484 8.61623Z" fill="#263238"/>
<path d="M11.7338 8.2774C11.4204 8.35275 11.137 8.5209 10.9207 8.75988C11.1278 8.7569 11.3333 8.7231 11.5305 8.65959C11.9156 8.55325 12.2816 8.38676 12.6147 8.16627C12.3164 8.1302 12.0138 8.16837 11.7338 8.2774Z" fill="white"/>
<path d="M13.0511 8.64604C12.9616 8.57556 12.8451 8.57827 12.5767 8.59996C12.099 8.69829 11.6296 8.83331 11.1727 9.00383C11.0155 9.07159 10.9016 9.13936 10.9233 9.23965C11.6421 9.07772 12.3523 8.8796 13.0511 8.64604Z" fill="#630F0F"/>
<path d="M11.9881 6.22811C12.0261 6.40697 11.961 6.57227 11.8445 6.59666C11.728 6.62105 11.6033 6.49639 11.5735 6.32567C11.5437 6.15494 11.6006 5.98421 11.7171 5.95982C11.8337 5.93543 11.9502 6.04925 11.9881 6.22811Z" fill="#263238"/>
<path d="M9.67855 6.87867C9.71649 7.05753 9.65145 7.22284 9.53493 7.24723C9.4184 7.27162 9.29374 7.14696 9.26393 6.97623C9.23412 6.80551 9.29103 6.63207 9.40756 6.60768C9.52409 6.58329 9.64061 6.69982 9.67855 6.87867Z" fill="#263238"/>
<path d="M9.45429 6.59947L8.99902 6.56696C8.99902 6.56696 9.28899 6.85421 9.45429 6.59947Z" fill="#263238"/>
<path d="M10.1885 6.98999C10.1153 7.43104 9.98117 7.85978 9.79004 8.26394C9.89521 8.30987 10.0092 8.33222 10.1239 8.32941C10.2386 8.3266 10.3513 8.2987 10.4541 8.24768L10.1885 6.98999Z" fill="#ED893E"/>
<path d="M15.5423 6.71856C15.503 6.9337 15.4187 7.13811 15.2949 7.31841C15.1711 7.49871 15.0107 7.65083 14.824 7.76483C14.3388 8.03588 13.9458 7.52901 13.9512 6.91643C13.9512 6.37432 14.2223 5.56116 14.7644 5.56116C15.3065 5.56116 15.6562 6.15477 15.5423 6.71856Z" fill="#FFB573"/>
<path d="M11.6846 4.94085C11.6559 4.94708 11.6259 4.94224 11.6006 4.92729C11.4876 4.85433 11.3588 4.80938 11.2249 4.79618C11.091 4.78298 10.9559 4.80191 10.8308 4.8514C10.8052 4.86367 10.7759 4.86544 10.749 4.85632C10.7222 4.8472 10.6999 4.82791 10.6871 4.80261C10.6807 4.79001 10.6768 4.77625 10.6758 4.76214C10.6748 4.74803 10.6766 4.73386 10.6812 4.72046C10.6857 4.70706 10.6929 4.69472 10.7023 4.68415C10.7117 4.67358 10.7232 4.66501 10.7359 4.65895C10.8936 4.59383 11.0646 4.56771 11.2345 4.58281C11.4043 4.59791 11.5681 4.65378 11.7117 4.74569C11.724 4.75264 11.7347 4.76205 11.7432 4.77332C11.7517 4.78459 11.7578 4.79749 11.7611 4.81122C11.7644 4.82494 11.7649 4.83921 11.7624 4.85311C11.76 4.86702 11.7547 4.88027 11.747 4.89206C11.7329 4.91542 11.7107 4.93279 11.6846 4.94085Z" fill="#263238"/>
<path d="M8.23205 6.03841C8.21279 6.04628 8.19172 6.04859 8.17121 6.04508C8.15071 6.04156 8.1316 6.03236 8.11607 6.01852C8.10053 6.00468 8.08919 5.98676 8.08334 5.9668C8.07749 5.94683 8.07736 5.92563 8.08297 5.90559C8.133 5.74267 8.22139 5.59413 8.34071 5.47244C8.46004 5.35076 8.60682 5.25948 8.76874 5.20627C8.79522 5.20231 8.82223 5.20828 8.84457 5.22305C8.86691 5.23781 8.883 5.26032 8.88973 5.28624C8.89646 5.31216 8.89336 5.33965 8.88103 5.36342C8.8687 5.38719 8.84801 5.40556 8.82295 5.41499C8.69459 5.45805 8.5784 5.5312 8.48409 5.62834C8.38978 5.72548 8.32009 5.84378 8.28084 5.97336C8.27363 6.00055 8.25614 6.02388 8.23205 6.03841Z" fill="#263238"/>
<path d="M11.7639 5.94903L11.3086 5.9165C11.3086 5.9165 11.5986 6.20376 11.7639 5.94903Z" fill="#263238"/>
<path d="M9.08287 3.67471C9.08287 4.69659 10.9423 5.37964 11.9045 5.3444C10.9044 5.57209 8.87687 5.40946 8.59497 3.92408C8.65731 3.67742 9.08287 3.67471 9.08287 3.67471Z" fill="#263238"/>
<path d="M25.9589 2.57971C26.8967 3.52569 29.6506 3.34408 30.7918 2.81282C29.7076 3.59616 27.3684 4.37409 25.7366 3.26006C25.5767 2.9619 25.9589 2.57971 25.9589 2.57971Z" fill="#263238"/>
</svg>
